<svg xmlns="http://www.w3.org/2000/svg" width="26" height="26" fill="none" viewBox="0 0 26 26">
    <path fill="#fff" fill-rule="evenodd" d="M9.307 16.251l-.001-3.364c2.416-.7 4.971-.697 7.387 0l.001 3.365c0 .964.739 1.747 1.65 1.747l4.008.001c.91 0 1.648-.781 1.648-1.746v-3.421c0-.559-.246-1.095-.678-1.415-.572-.426-1.162-.814-1.768-1.158-5.316-3.016-11.74-3.01-17.059-.004-.62.35-1.226.737-1.812 1.166-.436.318-.683.859-.683 1.42l.001 3.407c0 .965.738 1.747 1.649 1.747l4.008.002c.911 0 1.649-.782 1.649-1.747z" clip-rule="evenodd"/>
</svg>
