<svg xmlns="http://www.w3.org/2000/svg" width="26" height="26" fill="none" viewBox="0 0 26 26">
    <mask id="3ph9ldpzoa" fill="#fff">
        <path fill-rule="evenodd" d="M4 5c-1.105 0-2 .895-2 2v12c0 1.105.895 2 2 2h12.5c1.105 0 2-.895 2-2v-.667l2.628 1.274c1.328.644 2.872-.323 2.872-1.8V8.193c0-1.476-1.544-2.443-2.873-1.8L18.5 7.668V7c0-1.105-.895-2-2-2H4z" clip-rule="evenodd"/>
    </mask>
    <path fill="#fff" fill-rule="evenodd" d="M4 5c-1.105 0-2 .895-2 2v12c0 1.105.895 2 2 2h12.5c1.105 0 2-.895 2-2v-.667l2.628 1.274c1.328.644 2.872-.323 2.872-1.8V8.193c0-1.476-1.544-2.443-2.873-1.8L18.5 7.668V7c0-1.105-.895-2-2-2H4z" clip-rule="evenodd"/>
    <path fill="#fff" d="M18.5 18.333l.872-1.8-2.872-1.392v3.192h2zm2.628 1.274l-.873 1.8.873-1.8zm0-13.214l-.873-1.8.872 1.8zM18.5 7.667h-2v3.192l2.872-1.393-.872-1.8zM4 7V3C1.79 3 0 4.79 0 7h4zm0 12V7H0v12h4zm0 0H0c0 2.21 1.79 4 4 4v-4zm12.5 0H4v4h12.5v-4zm0 0v4c2.21 0 4-1.79 4-4h-4zm0-.667V19h4v-.667h-4zm5.5-.525l-2.628-1.274-1.744 3.599 2.627 1.274 1.745-3.6zm0 0l-1.745 3.599C22.91 22.695 26 20.76 26 17.807h-4zm0-9.616v9.616h4V8.192h-4zm0 0h4c0-2.952-3.089-4.887-5.745-3.599L22 8.193zm-2.628 1.274L22 8.192l-1.745-3.599-2.627 1.274 1.744 3.6zM16.5 7v.667h4V7h-4zm0 0h4c0-2.21-1.79-4-4-4v4zM4 7h12.5V3H4v4z" mask="url(#3ph9ldpzoa)"/>
</svg>
