<svg xmlns="http://www.w3.org/2000/svg" width="26" height="26" fill="none" viewBox="0 0 26 26">
    <path fill="#E84443" d="M16.5 1.866c.276-.478.888-.642 1.366-.366.478.276.642.888.366 1.366l-12 20.785c-.276.478-.888.642-1.366.366-.478-.276-.642-.888-.366-1.366l12-20.785z"/>
    <path fill="#fff" d="M4 5c-1.105 0-2 .895-2 2v12c0 .832.509 1.546 1.232 1.847L12.382 5H4zM16.5 21c1.105 0 2-.895 2-2v-.667l2.628 1.274c1.328.644 2.872-.323 2.872-1.8V8.193c0-1.476-1.544-2.443-2.873-1.8L18.5 7.668V7c0-.17-.021-.335-.061-.492L10.072 21H16.5z"/>
</svg>
