<svg xmlns="http://www.w3.org/2000/svg" width="26" height="26" fill="none" viewBox="0 0 26 26">
    <path fill="#06F" fill-rule="evenodd" d="M9.646 4c-.473 0-.882.332-.979.796L8.208 7H4c-1.105 0-2 .895-2 2v11c0 1.105.895 2 2 2h18c1.105 0 2-.895 2-2V9c0-1.105-.895-2-2-2h-4.208l-.46-2.204c-.096-.464-.505-.796-.979-.796H9.646zm2.942 7.8c-1.52 0-2.753 1.209-2.753 2.7s1.233 2.7 2.753 2.7c.507 0 .918.403.918.9s-.411.9-.918.9C10.054 19 8 16.985 8 14.5s2.054-4.5 4.588-4.5c2.32 0 4.238 1.69 4.545 3.882l.243-.287c.324-.383.902-.436 1.292-.118.39.317.444.884.12 1.267l-1.656 1.96c-.324.382-.902.435-1.292.118l-2.003-1.63c-.39-.316-.444-.884-.12-1.267.323-.382.902-.435 1.292-.118l.293.239c-.22-1.275-1.352-2.246-2.714-2.246z" clip-rule="evenodd"/>
</svg>
