<svg width="180" height="46" viewBox="0 0 180 46" fill="none" xmlns="http://www.w3.org/2000/svg">
    <g clip-path="url(#vmq6uvdnva)">
        <path d="M25.493 6.138c.088.137.205.255.214.391.127.401.497.646.546 1.046.02.137.194.196.282.254.098.127.03.274.224.46.088.058.02.205.039.342.088.059.185.117.273.176.827 1.3.905 2.805-.049 4.203a1.41 1.41 0 0 0-.36.587c-.078.078-.244.156-.322.234.02.137.107.196.205.323-.419.107-.468.46-.78.694-.087 0-.252.02-.34.029-.234.235-.477.323-.72.479-.078.078-.059.283-.05.352-.399.313-.973.508-1.577.489-.078 0-.146.224-.224.224-.428.04-.934.02-1.363.06-.175-.05-.273-.177-.458-.236-.165.02-.34.03-.516-.02-.272-.185-.623-.214-.896-.331-.175-.05-.496.117-.681 0-.575-.499-1.14-.997-1.451-1.515-.205-.323-.565-.43-.682-.763-.02-.137.049-.352-.126-.4-.35-.108-.205-.323-.224-.528-.108-.196-.127-.333-.312-.519-.107-.195.03-.488-.078-.752 0-.069.068-.147.059-.215-.127-.401.077-.831.038-1.173a1.9 1.9 0 0 1 .098-.694c.214-.43.409-.939.789-1.388 0-.069-.02-.206-.03-.274.078-.078.166-.088.234-.166.137-.352.273-.645.497-.939.302-.371.779-.694 1.168-1.075.234-.225.555-.4.77-.762.077-.078.35.039.428-.04.234-.224.575-.195.818-.351.243-.157.195.186.438.098.166-.02.244-.088.41-.176.243-.088.525.088.788.127.253-.02.516.02.789.205.37.244 1.217.156 1.353.635.205.323.575.567.78.89v.02z" fill="#BD0C30"/>
        <path d="M39.827 11.534c0-.215 0-.342-.088-.567-.02-.215.146-.45.069-.743-.05-.078-.156-.166-.147-.234.146-.45.156-.86.117-1.34a.987.987 0 0 0-.136-.302c.01-.069.039-.196.058-.333.01-.41-.117-.713-.243-1.085-.039-.146-.146-.234-.166-.45-.048-.078-.155-.175-.146-.244.107-.596-.175-1.065-.263-1.632-.136-.645-.74-1.056-.934-1.71.01-.07.214-.04.272-.03.477.45 1.013.977 1.14 1.623.087.224.048.42.146.576.409.499.477 1.134.555 1.77-.01.068.117.029.165.107-.01.068-.039.196.01.274.312.342.117.713.185 1.065.039.147.078.225.127.303-.01.069-.166.245-.186.303.254.333.36.763.293 1.163.292.137.155.518.224.802.048.078.107.088.165.107.078-.117.166-.234.195-.37.039-.539.058-1.018-.039-1.516-.078-.225-.107-.44.049-.606-.117-.03-.156-.176-.205-.254-.214-.87-.302-1.848-.565-2.737 0 0 .069-.049.088-.117-.088-.782-.682-1.516-.964-2.298-.049-.136-.273-.312-.38-.459 0 0 0-.068.02-.137.302.04.535.333.691.557.321.45.682.949.78 1.457.165.45.418.919.515 1.359.068.293.273.478.419.723.078.225.039.42.058.635.088.509.234.987.331 1.496.117.371.176.792.05 1.104-.167.577.213 1.212.37 1.73.087.225-.02.48-.118.665-.01.069.098.156.078.225-.107.254-.02.479-.068.743-.068.049.088.225 0 .342-.068.059-.127.039-.204.098-.098.185-.01.41-.05.606-.194.371-.097.87-.457 1.134-.136.039-.146.107-.214.156.058.01.107.088.156.176-.068.049-.137.039-.205.088-.02.127.234.293.283.371-.098.528-.487.988-.477 1.613-.03.127-.059.332-.088.46-.117.312-.35.537-.468.86-.019.127-.272.146-.301.273-.156.167-.146.45-.254.704-.087.117-.263.078-.409.186-.165.235-.146.45-.253.694-.185.303-.399.635-.574.938-.205.44-.546.85-.916 1.183a.477.477 0 0 0-.262.078c-.195.372-.41.645-.819.831-.058-.01-.146.274-.224.323-.282.205-.438.45-.779.645-.126.039-.194.088-.34-.147-.448.792-1.042 1.408-1.685 1.955-.34.196-.681.176-.905.4-.74.724-1.91 1.497-2.036 1.604-.058-.01-.282.323-.282.323-.234.02-.097.039-.321 0 0 0-.01.371-.312.43-.633.127-.799.86-.847 1.163-.03.156-.127.049-.205.107-.068.059-.02.157-.097.215-.273.167-.516.509-.74.773-.068.058-.117-.03-.195.029-.068.059-.409.479-.526.85-.292.645-.603 1.222-1.003 1.672-.097.107.224.538.205.684-.088.205-.273.235-.36.44-.078.498-.108 1.065-.195 1.603-.146.518.039.89.107 1.359.078.39-.02.899 0 1.28.03.303.234.645.204.939.01.459-.097.4 0 .782-.01.224-.087.45-.039.596-.019.303-.068.489-.078.782-.068.068-.194.215-.194.283-.049.753-.536 1.408-1.042 1.906-.322.206-.594.518-.954.49-.185-.01-.79.37-.994.42a3.318 3.318 0 0 1-1.48.078c-.565-.157-1.022-.294-1.412-.88-.233-.264-.633-.166-.779-.567-.048-.157-.37-.245-.428-.323-.302-.264-.458-.596-.682-.928-.146-.401-.039-.675-.224-1.056-.185-.234-.263-.4-.448-.645-.243-.313.059-.763-.126-1.075a.914.914 0 0 1-.312-.401c-.117-.303-.088-.753-.273-1.075-.097-.391-.038-1.809.04-2.19.01-.078-.205-.186-.195-.264.029-.547.224-1.085.175-1.652.058-.303.03-.547.302-.811 0 0-.127-.107-.117-.186.156-.44.156-.782.243-1.241.01-.078.176-.127.185-.196-.087-.332-.097-1.016-.039-1.32.03-.156.42-.38.517-.517.01-.078-.059-.274.087-.538.04-.068.137-.049.214-.107.01-.079-.039-.166-.02-.245.04-.225.42-.39.449-.547.156-.518.409-.733.681-1.154.098-.185.137-.38.293-.557.068-.049.107 0 .116-.068.01-.069-.019-.215-.01-.274.156-.176.361-.332.4-.528.107-.254.195-.43.35-.606.283-.215.565-.42.74-.723.156-.176.332-.137.478-.303.224-.225.282-.557.448-.792.39-.46.808-.782 1.227-1.095.35-.264.798-.371 1.139-.567.35-.263.565-.762.905-.957.205-.157.458-.176.672-.333.215-.156.39-.46.701-.528.702-.185.195.01.857-.254.41-.254.244-.322.653-.567.681-.4 1.032-.645 1.09-.635a.367.367 0 0 0 .166-.235c.166-.234 1.032-.85 1.159-.89.126-.038.282.128.428-.038.078-.118-.078-.225 0-.342.224-.225.438-.528.653-.685.068-.049.243.05.37.01.068-.049.097-.186.165-.234.088-.118-.068-.294.01-.411.097-.186.195-.371.321-.41.205-.089.477-.235.448-.382.049-.264.156-.518.429-.664.01-.069.029-.137.039-.196.155-.176.302-.274.457-.45.166-.234.098-.527.195-.713.312-.342.614-.616.691-1.085-.02-.215-.155-.518-.058-.704.078-.117.34-.195.37-.322.049-.264-.088-.567-.097-.841.039-.196.253-.362.224-.567-.02-.557.01-1.095-.069-1.662.186-.029.215-.156.234-.293-.049-.42-.292-.811-.4-1.251-.009-.274.215-.499.205-.772-.029-.215-.224-.46-.447-.645-.205-.255-.069-.636-.147-.92-.058-.351-.321-.625-.37-1.045-.02-.215-.272-.196-.36-.42-.068-.294-.146-.577-.146-.93-.039-.146-.224-.116-.331-.204-.243-.401-.156-1.203-.682-1.388.049-.264-.195-.323-.272-.538.311 0 .603.127.779.518.048.078.224.117.282.137.156.166.146.577.312.684.214.186.535.117.623.342.117.372.4.567.526.87-.01.069.02.215.068.293.214.186.243.391.39.567.36.42.72.85.554 1.427-.107.255.215.186.312.343.243.4.146.928.458 1.27-.059.675.263 1.29.467 1.887-.35.537-.156 1.486.117 2.033 0 0 .195-.03.204-.088.059-.323.653-.44.555-.596-.116-.372-.301-1.144-.301-1.486.038-.547.058-1.017-.03-1.583l-.146-.235c-.068-.293-.146-.587-.087-.91-.04-.146-.146-.234-.185-.38.01-.069.039-.196.048-.264.137-.04.302.068.42.097.106.088.009.274.057.352.195.313.478.45.536.802-.01.068-.039.195-.049.264.05.42.302.752.36 1.104.03.206-.155.509-.068.743.273.538.283 1.163.244 1.77-.049.263.282.478.195.654-.098.186.029.215-.069.401-.01.069-.145.108-.155.176.175.381-.088.958-.156 1.29-.01.069.204.137.253-.107.03-.147.273-.147.41-.186.145-.107.252-.361.242-.635l.059-.02zm1.295 1.32c.01-.332.166-.577.107-.939-.117-.371-.39 0-.584.02.107.44-.068.733-.205 1.124-.078.117-.146.45.05.42.301.069.622-.224.632-.625zm-.516 1.808c.078-.107.039-.322-.068-.41-.166-.108-.38.058-.477.234-.098.186-.02.48.233.46.059.01.234-.167.322-.284h-.01z" fill="#0083C8"/>
        <path d="M37.08 3.401c.322.245.449.646.702.978l-.03.137c-.437.38-.827-.254-.944-.626-.175-.381-.36-.762-.681-1.046.01-.068.029-.127.039-.195-.156-.176-.36-.42-.156-.518.087-.118.233.117.399.224.253.333.302.753.682 1.046h-.01zM38.892 1.71c0 .07-.107.186-.117.245-.204-.195-.419-.39-.594-.714-.058-.02-.175-.048-.224-.127-.058-.02-.048-.078-.029-.146.195-.02.34.156.506.274.059.02.137-.03.195-.02.166.107.253.274.273.489h-.01z" fill="#0083C8"/>
        <path d="M11.84 13.85c.06.05.147.128.186.186.097.069.195.069.302.03.097 0 .185.263.292.273.146.069.234.323.38.45.097.059.194.156.292.215.136.176.224.352.37.47.087.117.243.077.35.077.195.069.273.352.41.528.048 0 .136.176.136.235.097.058.185.176.33.244.04.059.04.166.079.225.36.586.837.958 1.139 1.583 0 0 .039.118.039.167.37.361.535.88.857 1.29.087.176.165.46.253.684.097.117.185.186.282.303.137.235.263.518.293.802 0 .107-.078.44-.273.254-.234-.244-.214-.567-.448-.753a.572.572 0 0 0-.107-.254c-.098-.117-.263-.107-.302-.274.01-.166-.175-.303-.263-.41-.234-.342-.584-.47-.867-.812-.048 0-.107 0-.155.05-.05.107-.205.263-.069.44.195.117.293.341.536.468.146.118.185.45.273.734.097.117.194.224.34.293.146.117.088.293.224.469 0 .059-.058.107-.058.156.088.176.292.137.428.313.108-.098.254-.02.341.137-.165.156-.117.264-.185.43-.165.264.214.518.458.645.156.01.127.284.273.41.087.177.34.196.467.43.039.118-.059.157-.117.265-.01.166.185.234.282.303.098.068.137.176.176.293-.156.04-.448-.166-.604-.176-.097-.039-.273-.254-.467-.303-.069-.02-.117.147-.185.127-.088-.02-.185-.039-.283-.059-.107-.019-.36-.303-.467-.312-.127-.02-.283.205-.4.186-.447-.079-.467-.108-.613-.167a3.601 3.601 0 0 1-.477-.234c-.097-.05-.068-.186-.166-.245-.087-.058-.292-.058-.38-.117-.36-.225-.7-.723-1.012-.89-.205-.107-.37-.215-.604-.322-.107-.069-.194-.225-.33-.274-.43-.146-.77-.41-1.247-.547-.916-.264-1.675.264-2.425.655-.039 0-.117 0-.156.02-.175.146-.37.224-.545.341-.234.186-.555.235-.808.382-.078.049-.088.195-.166.244-.117.069-.34.088-.457.156-.108.069-.117.196-.224.284a3.163 3.163 0 0 1-.711.45c-.166.087-1.539.322-1.763.322-.35 0-.604.293-1.13.293-.798 0-1.606-.02-2.268-.518-.137-.117-.166-.46-.263-.518-.292-.186-.263-.576-.341-.86-.097-.059-.292-.078-.282-.244.107-.821.516-1.564 1.012-2.131.117-.215.37-.303.4-.577 0 0 .448-.625.72-.88.059-.107-.029-.283.03-.38.408-.802 1.148-1.35 1.762-2.073.165-.157.273-.362.535-.4.108 0 .205.019.263-.089.117-.264.331-.41.487-.518.585-.4 1.071-.997 1.734-1.104.107-.05.165-.157.262-.206.108-.098.302.02.41-.02.496-.224.944-.703 1.45-.771.107-.05.166-.157.215-.147.448.039.983-.362 1.402.059.38-.079.954 0 1.188.205l-.04.01zm3.448 4.84v-.167c-.195-.117-.282-.46-.536-.528-.048 0-.155.049-.155.108-.01.332.126.557.263.84.058-.215.204-.205.301-.039a.41.41 0 0 0 .107-.215h.02z" fill="#299139"/>
        <path d="m63.324 34.153-2.27 2.375-6.31-6.178c-.827 1.476-1.82 2.727-2.97 3.764-1.148 1.026-2.297 1.867-3.437 2.512l-2.21-2.532c1.246-.626 2.308-1.349 3.184-2.18.877-.83 1.597-1.71 2.162-2.62.555-.918.964-1.847 1.227-2.805.253-.958.39-1.896.39-2.805v-4.37h3.485v3.744c0 .733-.048 1.427-.136 2.092-.097.665-.214 1.31-.36 1.936l7.245 7.086v-.02zm7.215 10.732h-3.3V28.151h-6.876v-3.186h6.875V16.47h3.301v28.416zM100.375 32.472H88.593v1.564h5.842v7.33H83.15v1.408h12.035v3.187H79.732v-7.615h11.256v-1.25H79.576v-3.06h5.687v-1.564h-11.54v-3.119h26.652v3.119zm-6.222-10.049c0 .9-.195 1.71-.575 2.454a6.095 6.095 0 0 1-1.538 1.916c-.662.518-1.45.928-2.347 1.221-.905.294-1.88.44-2.94.44a9.468 9.468 0 0 1-2.815-.41 7.476 7.476 0 0 1-2.347-1.183 5.722 5.722 0 0 1-1.567-1.887c-.38-.742-.575-1.573-.575-2.512 0-.938.185-1.788.555-2.541a5.814 5.814 0 0 1 1.558-1.955c.643-.538 1.412-.958 2.298-1.251.886-.293 1.85-.44 2.892-.44 1.042 0 1.977.147 2.873.44.906.293 1.685.704 2.347 1.25a5.926 5.926 0 0 1 1.587 1.917 5.52 5.52 0 0 1 .594 2.541zm-3.418-.03c0-.977-.39-1.749-1.178-2.306-.789-.567-1.724-.84-2.795-.84-1.07 0-2.054.273-2.814.83-.76.548-1.13 1.33-1.13 2.327 0 .997.38 1.71 1.13 2.248.76.537 1.694.811 2.814.811s2.006-.244 2.795-.743c.789-.498 1.178-1.27 1.178-2.307v-.02zM128.371 34.514h-26.613v-3.147h26.613v3.147zm-5.784 11.447h-3.33v-6.51h-11.909v-3.187h15.239v9.697zm-.058-16.217h-15.055V17.448h14.86v3.147h-11.569v1.34h11.199v3.186h-11.199v1.466h11.754v3.148l.01.01zM143.299 30.995H130.64v-12.98h3.291v3.743h6.038v-3.743h3.33v12.98zm-3.33-3.157v-2.932h-6.038v2.932h6.038zm12.688 18.103h-15.269v-7.84h11.101V36.48h-11.257v-3.157h14.675v7.84h-11.033v1.622h11.783V45.94zm.253-13.518h-3.262v-3.03h-5.346v-3.128h5.346v-2.249h-5.346V20.86h5.346V16.46h3.262v15.963zM173.193 34.25l-2.269 2.376-6.28-6.207c-.809 1.495-1.792 2.766-2.941 3.792-1.149 1.027-2.318 1.867-3.496 2.513l-2.21-2.532c1.266-.684 2.337-1.447 3.223-2.278.876-.83 1.597-1.7 2.162-2.59.535-.919.934-1.838 1.197-2.776.263-.938.39-1.867.39-2.776v-4.467h3.486v3.841c0 .733-.049 1.418-.136 2.073-.098.654-.215 1.28-.361 1.886l7.245 7.146h-.01zM180 44.895h-3.33V16.49H180v28.405z" fill="#1D1D1B"/>
    </g>
    <defs>
        <clipPath id="vmq6uvdnva">
            <path fill="#fff" d="M0 0h180v46H0z"/>
        </clipPath>
    </defs>
</svg>
