<svg width="26" height="26" viewBox="0 0 26 26" fill="none" xmlns="http://www.w3.org/2000/svg">
    <rect width="26" height="26" rx="2" fill="#fff"/>
    <path d="M17.5 1.866a1 1 0 0 1 1.732 1l-12 20.785a1 1 0 0 1-1.732-1l12-20.785zM13 2c.672 0 1.313.133 1.898.373L8.573 13.327A4.978 4.978 0 0 1 8 11V7a5 5 0 0 1 5-5zM7.159 15.778C6.299 14.73 5.8 13.453 5.8 12.1a.9.9 0 1 0-1.8 0c0 2.061.84 3.911 2.21 5.32l.949-1.642zM11.591 20.1c.136.02.272.036.409.05v3.017c0 .46.448.833 1 .833s1-.373 1-.833V20.15c4.42-.444 8-3.796 8-8.05a.9.9 0 1 0-1.8 0c0 3.383-3.121 6.3-7.2 6.3-.142 0-.282-.004-.421-.01l-.988 1.71zM18 11a5.002 5.002 0 0 1-3.982 4.896L18 9v2z" fill="#E84443"/>
</svg>
