<svg xmlns="http://www.w3.org/2000/svg" width="26" height="26" fill="none" viewBox="0 0 26 26">
    <path fill="#AAAFB6" d="M17.5 1.866c.276-.478.888-.642 1.366-.366.478.276.642.888.366 1.366l-12 20.785c-.276.478-.888.642-1.366.366-.478-.276-.642-.888-.366-1.366l12-20.785zM13 2c.672 0 1.313.133 1.898.373L8.573 13.327C8.207 12.632 8 11.84 8 11V7c0-2.761 2.239-5 5-5zM7.159 15.778C6.299 14.73 5.8 13.453 5.8 12.1c0-.497-.403-.9-.9-.9s-.9.403-.9.9c0 2.061.84 3.911 2.21 5.32l.949-1.642zM11.591 20.1c.136.02.272.036.409.05v3.017c0 .46.448.833 1 .833s1-.373 1-.833V20.15c4.42-.444 8-3.796 8-8.05 0-.497-.403-.9-.9-.9s-.9.403-.9.9c0 3.383-3.121 6.3-7.2 6.3-.142 0-.282-.004-.421-.01l-.988 1.71z"/>
    <path fill="#AAAFB6" d="M18 11c0 2.412-1.709 4.426-3.982 4.896L18 9v2z"/>
</svg>
