<svg xmlns="http://www.w3.org/2000/svg" width="26" height="26" fill="none" viewBox="0 0 26 26">
    <path fill="#E84443" d="M18.5 1.866c.276-.478.888-.642 1.366-.366.478.276.642.888.366 1.366l-12 20.785c-.276.478-.888.642-1.366.366-.478-.276-.642-.888-.366-1.366l12-20.785z"/>
    <path fill="#fff" fill-rule="evenodd" d="M4 20c-1.105 0-2-.895-2-2V5c0-1.105.895-2 2-2h11.536L9.762 13H8c-.552 0-1 .448-1 1s.448 1 1 1h.608L5.72 20H4zm13 2.057c0 .813-.92 1.286-1.581.814l-3.135-2.24L15.536 15H18c.552 0 1-.448 1-1s-.448-1-1-1h-1.31l1.81-3.134 3.464-6c.156-.27.266-.555.33-.844C23.26 3.164 24 3.995 24 5v13c0 1.105-.895 2-2 2h-5v2.057zM8 7c-.552 0-1 .448-1 1s.448 1 1 1h2c.552 0 1-.448 1-1s-.448-1-1-1H8z" clip-rule="evenodd"/>
</svg>
